<?xml version="1.0" standalone="no"?><!DOCTYPE svg PUBLIC "-//W3C//DTD SVG 1.1//EN" "http://www.w3.org/Graphics/SVG/1.1/DTD/svg11.dtd"><svg t="1676864320317" class="icon" viewBox="0 0 1024 1024" version="1.1" xmlns="http://www.w3.org/2000/svg" p-id="3190" xmlns:xlink="http://www.w3.org/1999/xlink" width="200" height="200"><path d="M512 173.504c185.344 0 336.192 151.232 336.192 338.432h61.568c0-220.864-178.112-399.936-397.76-399.936A397.056 397.056 0 0 0 173.44 302.08V169.152H112v198.784a32 32 0 0 0 32 32h197.568v-61.696H223.36A335.744 335.744 0 0 1 512 173.504zM114.304 511.936h61.44c0 187.2 150.912 338.368 336.256 338.368a335.744 335.744 0 0 0 288.64-164.736h-118.208v-61.696h197.568a32 32 0 0 1 32 32v198.848h-61.376v-132.928a397.056 397.056 0 0 1-338.56 190.08c-219.712 0-397.76-179.072-397.76-400z" fill="#409eff" fill-opacity=".9" p-id="3191"></path></svg>